<?xml version="1.0" encoding="utf-8"?>
<!-- Generator: Adobe Illustrator 17.1.0, SVG Export Plug-In . SVG Version: 6.00 Build 0)  -->
<!DOCTYPE svg PUBLIC "-//W3C//DTD SVG 1.1//EN" "http://www.w3.org/Graphics/SVG/1.1/DTD/svg11.dtd">
<svg version="1.1" xmlns="http://www.w3.org/2000/svg" xmlns:xlink="http://www.w3.org/1999/xlink" x="0px" y="0px"
	 viewBox="0 0 1920 1080" enable-background="new 0 0 1920 1080" xml:space="preserve">
<g id="BK">
	<linearGradient id="SVGID_1_" gradientUnits="userSpaceOnUse" x1="960" y1="1080" x2="960" y2="-4.310004e-08">
		<stop  offset="0" style="stop-color:#FFFFFF"/>
		<stop  offset="0.1105" style="stop-color:#FAFDFE"/>
		<stop  offset="0.2471" style="stop-color:#EBF7FC"/>
		<stop  offset="0.3973" style="stop-color:#D1EDF9"/>
		<stop  offset="0.5574" style="stop-color:#AEDFF4"/>
		<stop  offset="0.7254" style="stop-color:#81CEEE"/>
		<stop  offset="0.8973" style="stop-color:#4BB8E6"/>
		<stop  offset="1" style="stop-color:#27AAE1"/>
	</linearGradient>
	<rect fill="url(#SVGID_1_)" width="1920" height="1080"/>
</g>
<g id="Dirt-Tiles">
	<g>
		<rect x="70.1" y="36.6" fill="#866640" width="216.7" height="216.7"/>
		<path fill="#73552D" d="M151.8,66.8l-26.4,26.4c-2.6,2.6-6.5,3.1-9.7,1.2l-16.9-9.9c-2.8-1.7-3.5-5.5-1.4-8l12.1-14.8
			c1.4-1.7,3.5-2.8,5.8-2.8h33.3C152.6,58.9,154.7,63.9,151.8,66.8z"/>
		<path fill="#765B37" d="M254.3,101.5l-8.9,12.2c-1.2,1.7-3.8,1.5-4.7-0.4l-14.2-29.4c-0.7-1.4,0.2-3,1.7-3.2l9.4-1.4
			c1.6-0.2,3.2,0.3,4.3,1.5l11.7,11.9C256,95.1,256.3,98.8,254.3,101.5z"/>
		<path fill="#9E7C54" d="M117.9,165.8l-10.7-10.7c-1.5-1.5-0.8-4,1.2-4.6l31.3-9.4c1.4-0.4,2.9,0.7,2.9,2.2l-0.1,9.5
			c0,1.6-0.8,3.1-2.1,4.1l-13.6,9.7C124,168.5,120.3,168.2,117.9,165.8z"/>
		<path fill="#91724D" d="M247,197.9l14.7-3.3c2-0.5,3.8,1.4,3.3,3.4l-8.8,31.4c-0.4,1.5-2.1,2.1-3.4,1.3l-8-5.2
			c-1.4-0.9-2.2-2.4-2.3-4l-0.9-16.7C241.5,201.6,243.7,198.6,247,197.9z"/>
	</g>
	<g>
		<rect x="339.3" y="36.6" fill="#866640" width="216.7" height="216.7"/>
		<path fill="#73552D" d="M387,238.3l-30.6-21.5c-3-2.1-4.1-5.9-2.9-9.3l6.9-18.3c1.2-3.1,4.8-4.4,7.7-2.8l16.7,9.3
			c2,1.1,3.3,3,3.7,5.2l5.7,32.8C395,237.8,390.4,240.7,387,238.3z"/>
		<path fill="#765B37" d="M538.6,224.9l-8.9,12.2c-1.2,1.7-3.8,1.5-4.7-0.4l-14.2-29.4c-0.7-1.4,0.2-3,1.7-3.2l9.4-1.4
			c1.6-0.2,3.2,0.3,4.3,1.5l11.7,11.9C540.3,218.4,540.6,222.2,538.6,224.9z"/>
		<path fill="#9F7F58" d="M418.5,166.6l2.2-96.2c0.2-8,8.6-13.2,15.8-9.7l92,44.5c5.1,2.5,6.5,9,3,13.4l-47.7,58.1
			c-3.5,4.3-9,6.3-14.4,5.4l-44-7.4C421.3,174.1,418.4,170.6,418.5,166.6z"/>
		<path fill="#91724D" d="M361.6,67.7l14.8-3.3c2-0.5,3.8,1.4,3.3,3.4l-8.8,31.4c-0.4,1.5-2.1,2.1-3.4,1.3l-8-5.2
			c-1.4-0.9-2.2-2.4-2.3-4l-0.9-16.7C356.1,71.4,358.3,68.4,361.6,67.7z"/>
	</g>
	<g>
		<rect x="608" y="36.6" fill="#866640" width="216.7" height="216.7"/>
		<path fill="#684B26" d="M753.7,108.6l37,5c3.6,0.5,6.4,3.3,6.8,6.9l2.3,19.4c0.4,3.3-2.2,6.1-5.5,6l-19.1-0.6
			c-2.2-0.1-4.3-1.2-5.7-2.9L749.4,116C746.9,112.7,749.6,108.1,753.7,108.6z"/>
		<path fill="#765B37" d="M656.1,164.3l-8.9,12.2c-1.2,1.7-3.8,1.5-4.7-0.4l-14.2-29.4c-0.7-1.4,0.2-3,1.7-3.2l9.4-1.4
			c1.6-0.2,3.2,0.3,4.3,1.5l11.7,11.9C657.8,157.9,658.1,161.6,656.1,164.3z"/>
		<path fill="#91724D" d="M753.8,196.4l14.8-3.3c2-0.5,3.8,1.4,3.3,3.4L763,228c-0.4,1.5-2.1,2.1-3.4,1.3l-8-5.2
			c-1.4-0.9-2.2-2.4-2.3-4l-0.9-16.7C748.3,200.1,750.5,197.1,753.8,196.4z"/>
	</g>
	<g>
		<rect x="877.1" y="36.6" fill="#866640" width="216.7" height="216.7"/>
		<path fill="#9C7A53" d="M1027.6,227.6l16.9-34.9c1.6-3.4,5.4-5.2,9.1-4.5l19.9,4c3.3,0.7,5.3,4.2,4.1,7.4l-6.8,18.6
			c-0.8,2.2-2.5,3.9-4.7,4.7l-32.6,11.3C1029.5,235.6,1025.7,231.4,1027.6,227.6z"/>
		<path fill="#71532D" d="M921.8,117.2l-15-1.5c-2.1-0.2-3.2-2.6-2-4.3L923,84.4c0.8-1.3,2.7-1.3,3.6-0.1l5.9,7.4
			c1,1.3,1.4,2.9,0.9,4.5l-4.4,16.1C928.1,115.4,925.1,117.6,921.8,117.2z"/>
		<path fill="#72532C" d="M986.5,95.6l61.8,33.8c5.2,2.8,5.7,10,1,13.6l-59.9,44.8c-3.3,2.5-8.1,1.2-9.7-2.6l-21.7-50.6
			c-1.6-3.7-1.1-8,1.3-11.2l19.6-26.2C980.7,94.9,983.9,94.2,986.5,95.6z"/>
		<path fill="#90714B" d="M945.1,199.5l5.7,14c0.8,1.9-0.8,4-2.8,3.8l-32.5-3.5c-1.5-0.2-2.4-1.7-1.8-3.1l3.8-8.7
			c0.6-1.5,2-2.6,3.5-2.9l16.3-3.6C940.6,194.7,943.9,196.4,945.1,199.5z"/>
		<path fill="#A48561" d="M1032.4,61.7l14.8-3.3c2-0.5,3.8,1.4,3.3,3.4l-8.8,31.4c-0.4,1.5-2.1,2.1-3.4,1.3l-8-5.2
			c-1.4-0.9-2.2-2.4-2.3-4l-0.9-16.7C1026.9,65.4,1029.2,62.4,1032.4,61.7z"/>
	</g>
	<g>
		<rect x="70.1" y="307.4" fill="#866640" width="216.7" height="216.7"/>
		<path fill="#73552D" d="M151.8,337.5l-26.4,26.4c-2.6,2.6-6.5,3.1-9.7,1.2l-16.9-9.9c-2.8-1.7-3.5-5.5-1.4-8l12.1-14.8
			c1.4-1.7,3.5-2.8,5.8-2.8h33.3C152.6,329.6,154.7,334.6,151.8,337.5z"/>
		<path fill="#765B37" d="M254.3,372.2l-8.9,12.2c-1.2,1.7-3.8,1.5-4.7-0.4l-14.2-29.4c-0.7-1.4,0.2-3,1.7-3.2l9.4-1.4
			c1.6-0.2,3.2,0.3,4.3,1.5l11.7,11.9C256,365.8,256.3,369.5,254.3,372.2z"/>
		<path fill="#9E7C54" d="M117.9,436.6l-10.7-10.7c-1.5-1.5-0.8-4,1.2-4.6l31.3-9.4c1.4-0.4,2.9,0.7,2.9,2.2l-0.1,9.5
			c0,1.6-0.8,3.1-2.1,4.1l-13.6,9.7C124,439.2,120.3,438.9,117.9,436.6z"/>
		<path fill="#91724D" d="M247,468.6l14.7-3.3c2-0.5,3.8,1.4,3.3,3.4l-8.8,31.4c-0.4,1.5-2.1,2.1-3.4,1.3l-8-5.2
			c-1.4-0.9-2.2-2.4-2.3-4l-0.9-16.7C241.5,472.3,243.7,469.3,247,468.6z"/>
	</g>
	<g>
		<rect x="339.3" y="307.4" fill="#866640" width="216.7" height="216.7"/>
		<path fill="#73552D" d="M387,509.1l-30.6-21.5c-3-2.1-4.1-5.9-2.9-9.3l6.9-18.3c1.2-3.1,4.8-4.4,7.7-2.8l16.7,9.3
			c2,1.1,3.3,3,3.7,5.2l5.7,32.8C395,508.6,390.4,511.4,387,509.1z"/>
		<path fill="#765B37" d="M538.6,495.6l-8.9,12.2c-1.2,1.7-3.8,1.5-4.7-0.4L510.8,478c-0.7-1.4,0.2-3,1.7-3.2l9.4-1.4
			c1.6-0.2,3.2,0.3,4.3,1.5l11.7,11.9C540.3,489.2,540.6,492.9,538.6,495.6z"/>
		<path fill="#9F7F58" d="M418.5,437.3l2.2-96.2c0.2-8,8.6-13.2,15.8-9.7l92,44.5c5.1,2.5,6.5,9,3,13.4l-47.7,58.1
			c-3.5,4.3-9,6.3-14.4,5.4l-44-7.4C421.3,444.8,418.4,441.3,418.5,437.3z"/>
		<path fill="#91724D" d="M361.6,338.4l14.8-3.3c2-0.5,3.8,1.4,3.3,3.4l-8.8,31.4c-0.4,1.5-2.1,2.1-3.4,1.3l-8-5.2
			c-1.4-0.9-2.2-2.4-2.3-4l-0.9-16.7C356.1,342.1,358.3,339.2,361.6,338.4z"/>
	</g>
	<g>
		<rect x="608" y="307.4" fill="#866640" width="216.7" height="216.7"/>
		<path fill="#684B26" d="M753.7,379.4l37,5c3.6,0.5,6.4,3.3,6.8,6.9l2.3,19.4c0.4,3.3-2.2,6.1-5.5,6l-19.1-0.6
			c-2.2-0.1-4.3-1.2-5.7-2.9l-20.1-26.5C746.9,383.5,749.6,378.8,753.7,379.4z"/>
		<path fill="#765B37" d="M656.1,435l-8.9,12.2c-1.2,1.7-3.8,1.5-4.7-0.4l-14.2-29.4c-0.7-1.4,0.2-3,1.7-3.2l9.4-1.4
			c1.6-0.2,3.2,0.3,4.3,1.5l11.7,11.9C657.8,428.6,658.1,432.3,656.1,435z"/>
		<path fill="#91724D" d="M753.8,467.1l14.8-3.3c2-0.5,3.8,1.4,3.3,3.4l-8.8,31.4c-0.4,1.5-2.1,2.1-3.4,1.3l-8-5.2
			c-1.4-0.9-2.2-2.4-2.3-4l-0.9-16.7C748.3,470.8,750.5,467.9,753.8,467.1z"/>
	</g>
	<g>
		<rect x="877.1" y="307.4" fill="#866640" width="216.7" height="216.7"/>
		<path fill="#9C7A53" d="M1027.6,498.3l16.9-34.9c1.6-3.4,5.4-5.2,9.1-4.5l19.9,4c3.3,0.7,5.3,4.2,4.1,7.4l-6.8,18.6
			c-0.8,2.2-2.5,3.9-4.7,4.7l-32.6,11.3C1029.5,506.4,1025.7,502.2,1027.6,498.3z"/>
		<path fill="#71532D" d="M921.8,388l-15-1.5c-2.1-0.2-3.2-2.6-2-4.3l18.3-27.1c0.8-1.3,2.7-1.3,3.6-0.1l5.9,7.4
			c1,1.3,1.4,2.9,0.9,4.5L929,383C928.1,386.2,925.1,388.3,921.8,388z"/>
		<path fill="#72532C" d="M986.5,366.4l61.8,33.8c5.2,2.8,5.7,10,1,13.6l-59.9,44.8c-3.3,2.5-8.1,1.2-9.7-2.6l-21.7-50.6
			c-1.6-3.7-1.1-8,1.3-11.2l19.6-26.2C980.7,365.7,983.9,365,986.5,366.4z"/>
		<path fill="#90714B" d="M945.1,470.3l5.7,14c0.8,1.9-0.8,4-2.8,3.8l-32.5-3.5c-1.5-0.2-2.4-1.7-1.8-3.1l3.8-8.7
			c0.6-1.5,2-2.6,3.5-2.9l16.3-3.6C940.6,465.5,943.9,467.2,945.1,470.3z"/>
		<path fill="#A48561" d="M1032.4,332.4l14.8-3.3c2-0.5,3.8,1.4,3.3,3.4l-8.8,31.4c-0.4,1.5-2.1,2.1-3.4,1.3l-8-5.2
			c-1.4-0.9-2.2-2.4-2.3-4l-0.9-16.7C1026.9,336.1,1029.2,333.2,1032.4,332.4z"/>
	</g>
	<g>
		<path opacity="0.2" fill="#231F20" d="M121.1,98.5c2.7-1.1-21.1-40.6-0.1-37c37.9,6.5,16.2,50.5,18,54.9
			c1.8,4.2,26.8-15.9,42.5-50.4c8-17.5,10.9,34.3,27.6,34.3c2.6,0-4.8-17-1.3-26.2c3.4-8.9,12.5-14.4,18.4-14.1
			c27.1,1.5,15.8,51.3,16.6,65c7.2,10.9,42.9-45.1,44.1-46.7V36.6H70.1v41.5C76.7,78.2,106.6,106.3,121.1,98.5z"/>
		<path fill="#559500" d="M117.2,95.9c2.7-1.1-19.9-37.6,3.7-34.4c33.4,4.5,19,45.1,18.7,49.7c-0.3,4.6,16.4-0.4,40.9-45.2
			c9.2-16.9,9.4,31.9,26.1,31.9c2.6,0-4.4-14.6-0.9-23.8c3.4-8.9,9.2-14.2,19.4-14.1c27.1,0.3,16.8,52.5,17.3,62.1
			c0.5,9.4,43.1-42.2,44.4-43.8V36.6H70.1v41.5C76.7,78.2,102.7,103.7,117.2,95.9z"/>
		<path fill="#66B300" d="M286.8,49.6c0,0-59.1-2.4-80.6-0.3c-23,2.2-63.7,2-80,0.3c-16.8-1.8-56.1,0-56.1,0v-9.2h216.7V49.6z"/>
		<path fill="#6CBD00" d="M286.8,45.9c0,0-31.3,1.4-52.9,0c-21.6-1.4-91.3,2.6-107.7,0c-16.4-2.6-56.1,0-56.1,0v-9.2h216.7V45.9z"/>
	</g>
	<g>
		<path opacity="0.2" fill="#231F20" d="M390.3,98.5c2.7-1.1-21.1-40.6-0.1-37c37.9,6.5,16.2,50.5,18,54.9
			c1.8,4.2,26.8-15.9,42.5-50.4c8-17.5,10.9,34.3,27.6,34.3c2.6,0-4.8-17-1.3-26.2c3.4-8.9,12.5-14.4,18.4-14.1
			c27.1,1.5,15.8,51.3,16.6,65c7.2,10.9,42.9-45.1,44.1-46.7V36.6H339.3v41.5C345.9,78.2,375.7,106.3,390.3,98.5z"/>
		<path fill="#559500" d="M386.4,95.9c2.7-1.1-19.9-37.6,3.7-34.4c33.4,4.5,19,45.1,18.7,49.7c-0.3,4.6,16.4-0.4,40.9-45.2
			c9.2-16.9,9.4,31.9,26.1,31.9c2.6,0-4.4-14.6-0.9-23.8c3.4-8.9,9.2-14.2,19.4-14.1c27.1,0.3,16.8,52.5,17.3,62.1
			c0.5,9.4,43.1-42.2,44.4-43.8V36.6H339.3v41.5C345.9,78.2,371.9,103.7,386.4,95.9z"/>
		<path fill="#66B300" d="M556,49.6c0,0-59.1-2.4-80.6-0.3c-23,2.2-63.7,2-80,0.3c-16.8-1.8-56.1,0-56.1,0v-9.2H556V49.6z"/>
		<path fill="#6CBD00" d="M556,45.9c0,0-31.3,1.4-52.9,0c-21.6-1.4-91.3,2.6-107.7,0c-16.4-2.6-56.1,0-56.1,0v-9.2H556V45.9z"/>
	</g>
	<g>
		<path opacity="0.2" fill="#231F20" d="M659,98.5c2.7-1.1-21.1-40.6-0.1-37c37.9,6.5,16.2,50.5,18,54.9
			c1.8,4.2,26.8-15.9,42.5-50.4c8-17.5,10.9,34.3,27.6,34.3c2.6,0-4.8-17-1.3-26.2c3.4-8.9,12.5-14.4,18.4-14.1
			c27.1,1.5,15.8,51.3,16.6,65c7.2,10.9,42.9-45.1,44.1-46.7V36.6H608v41.5C614.6,78.2,644.5,106.3,659,98.5z"/>
		<path fill="#559500" d="M655.1,95.9c2.7-1.1-19.9-37.6,3.7-34.4c33.4,4.5,19,45.1,18.7,49.7c-0.3,4.6,16.4-0.4,40.9-45.2
			c9.2-16.9,9.4,31.9,26.1,31.9c2.6,0-4.4-14.6-0.9-23.8c3.4-8.9,9.2-14.2,19.4-14.1c27.1,0.3,16.8,52.5,17.3,62.1
			c0.5,9.4,43.1-42.2,44.4-43.8V36.6H608v41.5C614.6,78.2,640.6,103.7,655.1,95.9z"/>
		<path fill="#66B300" d="M824.7,49.6c0,0-59.1-2.4-80.6-0.3c-23,2.2-63.7,2-80,0.3c-16.8-1.8-56.1,0-56.1,0v-9.2h216.7V49.6z"/>
		<path fill="#6CBD00" d="M824.7,45.9c0,0-31.3,1.4-52.9,0c-21.6-1.4-91.3,2.6-107.7,0c-16.4-2.6-56.1,0-56.1,0v-9.2h216.7V45.9z"/>
	</g>
	<g>
		<path opacity="0.2" fill="#231F20" d="M928.1,98.5c2.7-1.1-21.1-40.6-0.1-37c37.9,6.5,16.2,50.5,18,54.9
			c1.8,4.2,26.8-15.9,42.5-50.4c8-17.5,10.9,34.3,27.6,34.3c2.6,0-4.8-17-1.3-26.2c3.4-8.9,12.5-14.4,18.4-14.1
			c27.1,1.5,15.8,51.3,16.6,65c7.2,10.9,42.9-45.1,44.1-46.7V36.6H877.1v41.5C883.7,78.2,913.5,106.3,928.1,98.5z"/>
		<path fill="#559500" d="M924.2,95.9c2.7-1.1-19.9-37.6,3.7-34.4c33.4,4.5,19,45.1,18.7,49.7c-0.3,4.6,16.4-0.4,40.9-45.2
			c9.2-16.9,9.4,31.9,26.1,31.9c2.6,0-4.4-14.6-0.9-23.8c3.4-8.9,9.2-14.2,19.4-14.1c27.1,0.3,16.8,52.5,17.3,62.1
			c0.5,9.4,43.1-42.2,44.4-43.8V36.6H877.1v41.5C883.7,78.2,909.7,103.7,924.2,95.9z"/>
		<path fill="#66B300" d="M1093.8,49.6c0,0-59.1-2.4-80.6-0.3c-23,2.2-63.7,2-80,0.3c-16.8-1.8-56.1,0-56.1,0v-9.2h216.7V49.6z"/>
		<path fill="#6CBD00" d="M1093.8,45.9c0,0-31.3,1.4-52.9,0c-21.6-1.4-91.3,2.6-107.7,0c-16.4-2.6-56.1,0-56.1,0v-9.2h216.7V45.9z"
			/>
	</g>
</g>
<g id="Rock-Tiles">
	<g>
		<rect x="70.1" y="561.4" fill="#797979" width="216.7" height="216.7"/>
		<path fill="#6A6A6A" d="M151.8,591.5L125.4,618c-2.6,2.6-6.5,3.1-9.7,1.2l-16.9-9.9c-2.8-1.7-3.5-5.5-1.4-8l12.1-14.8
			c1.4-1.7,3.5-2.8,5.8-2.8h33.3C152.6,583.6,154.7,588.6,151.8,591.5z"/>
		<path fill="#707070" d="M254.3,626.3l-8.9,12.2c-1.2,1.7-3.8,1.5-4.7-0.4l-14.2-29.4c-0.7-1.4,0.2-3,1.7-3.2l9.4-1.4
			c1.6-0.2,3.2,0.3,4.3,1.5l11.7,11.9C256,619.9,256.3,623.6,254.3,626.3z"/>
		<path fill="#8C8C8C" d="M117.9,690.6l-10.7-10.7c-1.5-1.5-0.8-4,1.2-4.6l31.3-9.4c1.4-0.4,2.9,0.7,2.9,2.2l-0.1,9.5
			c0,1.6-0.8,3.1-2.1,4.1l-13.6,9.7C124,693.3,120.3,693,117.9,690.6z"/>
		<path fill="#848484" d="M247,722.6l14.7-3.3c2-0.5,3.8,1.4,3.3,3.4l-8.8,31.4c-0.4,1.5-2.1,2.1-3.4,1.3l-8-5.2
			c-1.4-0.9-2.2-2.4-2.3-4l-0.9-16.7C241.5,726.3,243.7,723.4,247,722.6z"/>
	</g>
	<g>
		<rect x="339.3" y="561.4" fill="#797979" width="216.7" height="216.7"/>
		<path fill="#636363" d="M387,763.1l-30.6-21.5c-3-2.1-4.1-5.9-2.9-9.3l6.9-18.3c1.2-3.1,4.8-4.4,7.7-2.8l16.7,9.3
			c2,1.1,3.3,3,3.7,5.2l5.7,32.8C395,762.6,390.4,765.5,387,763.1z"/>
		<path fill="#848484" d="M538.6,749.6l-8.9,12.2c-1.2,1.7-3.8,1.5-4.7-0.4L510.8,732c-0.7-1.4,0.2-3,1.7-3.2l9.4-1.4
			c1.6-0.2,3.2,0.3,4.3,1.5l11.7,11.9C540.3,743.2,540.6,746.9,538.6,749.6z"/>
		<path fill="#8F8F8F" d="M418.5,691.3l2.2-96.2c0.2-8,8.6-13.2,15.8-9.7l92,44.5c5.1,2.5,6.5,9,3,13.4l-47.7,58.1
			c-3.5,4.3-9,6.3-14.4,5.4l-44-7.4C421.3,698.9,418.4,695.4,418.5,691.3z"/>
		<path fill="#848484" d="M361.6,592.5l14.8-3.3c2-0.5,3.8,1.4,3.3,3.4l-8.8,31.4c-0.4,1.5-2.1,2.1-3.4,1.3l-8-5.2
			c-1.4-0.9-2.2-2.4-2.3-4l-0.9-16.7C356.1,596.2,358.3,593.2,361.6,592.5z"/>
	</g>
	<g>
		<rect x="608" y="561.4" fill="#797979" width="216.7" height="216.7"/>
		<path fill="#626262" d="M753.7,633.4l37,5c3.6,0.5,6.4,3.3,6.8,6.9l2.3,19.4c0.4,3.3-2.2,6.1-5.5,6l-19.1-0.6
			c-2.2-0.1-4.3-1.2-5.7-2.9l-20.1-26.5C746.9,637.5,749.6,632.8,753.7,633.4z"/>
		<path fill="#707070" d="M656.1,689l-8.9,12.2c-1.2,1.7-3.8,1.5-4.7-0.4l-14.2-29.4c-0.7-1.4,0.2-3,1.7-3.2l9.4-1.4
			c1.6-0.2,3.2,0.3,4.3,1.5l11.7,11.9C657.8,682.6,658.1,686.3,656.1,689z"/>
		<path fill="#858585" d="M753.8,721.2l14.8-3.3c2-0.5,3.8,1.4,3.3,3.4l-8.8,31.4c-0.4,1.5-2.1,2.1-3.4,1.3l-8-5.2
			c-1.4-0.9-2.2-2.4-2.3-4l-0.9-16.7C748.3,724.8,750.5,721.9,753.8,721.2z"/>
	</g>
	<g>
		<rect x="877.1" y="561.4" fill="#797979" width="216.7" height="216.7"/>
		<path fill="#8B8B8B" d="M1027.6,752.4l16.9-34.9c1.6-3.4,5.4-5.2,9.1-4.5l19.9,4c3.3,0.7,5.3,4.2,4.1,7.4l-6.8,18.6
			c-0.8,2.2-2.5,3.9-4.7,4.7l-32.6,11.3C1029.5,760.4,1025.7,756.2,1027.6,752.4z"/>
		<path fill="#686868" d="M921.8,642l-15-1.5c-2.1-0.2-3.2-2.6-2-4.3l18.3-27.1c0.8-1.3,2.7-1.3,3.6-0.1l5.9,7.4
			c1,1.3,1.4,2.9,0.9,4.5L929,637C928.1,640.2,925.1,642.3,921.8,642z"/>
		<path fill="#696969" d="M986.5,620.4l61.8,33.8c5.2,2.8,5.7,10,1,13.6l-59.9,44.8c-3.3,2.5-8.1,1.2-9.7-2.6l-21.7-50.6
			c-1.6-3.7-1.1-8,1.3-11.2l19.6-26.2C980.7,619.7,983.9,619,986.5,620.4z"/>
		<path fill="#848484" d="M945.1,724.3l5.7,14c0.8,1.9-0.8,4-2.8,3.8l-32.5-3.5c-1.5-0.2-2.4-1.7-1.8-3.1l3.8-8.7
			c0.6-1.5,2-2.6,3.5-2.9l16.3-3.6C940.6,719.5,943.9,721.2,945.1,724.3z"/>
		<path fill="#959595" d="M1032.4,586.5l14.8-3.3c2-0.5,3.8,1.4,3.3,3.4l-8.8,31.4c-0.4,1.5-2.1,2.1-3.4,1.3l-8-5.2
			c-1.4-0.9-2.2-2.4-2.3-4l-0.9-16.7C1026.9,590.2,1029.2,587.2,1032.4,586.5z"/>
	</g>
	<g>
		<rect x="70.1" y="816.1" fill="#797979" width="216.7" height="216.7"/>
		<path fill="#6A6A6A" d="M151.8,846.2l-26.4,26.4c-2.6,2.6-6.5,3.1-9.7,1.2l-16.9-9.9c-2.8-1.7-3.5-5.5-1.4-8l12.1-14.8
			c1.4-1.7,3.5-2.8,5.8-2.8h33.3C152.6,838.3,154.7,843.3,151.8,846.2z"/>
		<path fill="#707070" d="M254.3,880.9l-8.9,12.2c-1.2,1.7-3.8,1.5-4.7-0.4l-14.2-29.4c-0.7-1.4,0.2-3,1.7-3.2l9.4-1.4
			c1.6-0.2,3.2,0.3,4.3,1.5l11.7,11.9C256,874.5,256.3,878.2,254.3,880.9z"/>
		<path fill="#8C8C8C" d="M117.9,945.2l-10.7-10.7c-1.5-1.5-0.8-4,1.2-4.6l31.3-9.4c1.4-0.4,2.9,0.7,2.9,2.2l-0.1,9.5
			c0,1.6-0.8,3.1-2.1,4.1l-13.6,9.7C124,947.9,120.3,947.6,117.9,945.2z"/>
		<path fill="#848484" d="M247,977.3l14.7-3.3c2-0.5,3.8,1.4,3.3,3.4l-8.8,31.4c-0.4,1.5-2.1,2.1-3.4,1.3l-8-5.2
			c-1.4-0.9-2.2-2.4-2.3-4l-0.9-16.7C241.5,981,243.7,978,247,977.3z"/>
	</g>
	<g>
		<rect x="339.3" y="816.1" fill="#797979" width="216.7" height="216.7"/>
		<path fill="#636363" d="M387,1017.8l-30.6-21.5c-3-2.1-4.1-5.9-2.9-9.3l6.9-18.3c1.2-3.1,4.8-4.4,7.7-2.8l16.7,9.3
			c2,1.1,3.3,3,3.7,5.2l5.7,32.8C395,1017.2,390.4,1020.1,387,1017.8z"/>
		<path fill="#848484" d="M538.6,1004.3l-8.9,12.2c-1.2,1.7-3.8,1.5-4.7-0.4l-14.2-29.4c-0.7-1.4,0.2-3,1.7-3.2l9.4-1.4
			c1.6-0.2,3.2,0.3,4.3,1.5l11.7,11.9C540.3,997.9,540.6,1001.6,538.6,1004.3z"/>
		<path fill="#8F8F8F" d="M418.5,946l2.2-96.2c0.2-8,8.6-13.2,15.8-9.7l92,44.5c5.1,2.5,6.5,9,3,13.4l-47.7,58.1
			c-3.5,4.3-9,6.3-14.4,5.4l-44-7.4C421.3,953.5,418.4,950,418.5,946z"/>
		<path fill="#848484" d="M361.6,847.1l14.8-3.3c2-0.5,3.8,1.4,3.3,3.4l-8.8,31.4c-0.4,1.5-2.1,2.1-3.4,1.3l-8-5.2
			c-1.4-0.9-2.2-2.4-2.3-4l-0.9-16.7C356.1,850.8,358.3,847.8,361.6,847.1z"/>
	</g>
	<g>
		<rect x="608" y="816.1" fill="#797979" width="216.7" height="216.7"/>
		<path fill="#626262" d="M753.7,888l37,5c3.6,0.5,6.4,3.3,6.8,6.9l2.3,19.4c0.4,3.3-2.2,6.1-5.5,6l-19.1-0.6
			c-2.2-0.1-4.3-1.2-5.7-2.9l-20.1-26.5C746.9,892.1,749.6,887.5,753.7,888z"/>
		<path fill="#707070" d="M656.1,943.7l-8.9,12.2c-1.2,1.7-3.8,1.5-4.7-0.4l-14.2-29.4c-0.7-1.4,0.2-3,1.7-3.2l9.4-1.4
			c1.6-0.2,3.2,0.3,4.3,1.5l11.7,11.9C657.8,937.3,658.1,941,656.1,943.7z"/>
		<path fill="#858585" d="M753.8,975.8l14.8-3.3c2-0.5,3.8,1.4,3.3,3.4l-8.8,31.4c-0.4,1.5-2.1,2.1-3.4,1.3l-8-5.2
			c-1.4-0.9-2.2-2.4-2.3-4l-0.9-16.7C748.3,979.5,750.5,976.5,753.8,975.8z"/>
	</g>
	<g>
		<rect x="877.1" y="816.1" fill="#797979" width="216.7" height="216.7"/>
		<path fill="#8B8B8B" d="M1027.6,1007l16.9-34.9c1.6-3.4,5.4-5.2,9.1-4.5l19.9,4c3.3,0.7,5.3,4.2,4.1,7.4l-6.8,18.6
			c-0.8,2.2-2.5,3.9-4.7,4.7l-32.6,11.3C1029.5,1015,1025.7,1010.9,1027.6,1007z"/>
		<path fill="#686868" d="M921.8,896.6l-15-1.5c-2.1-0.2-3.2-2.6-2-4.3l18.3-27.1c0.8-1.3,2.7-1.3,3.6-0.1l5.9,7.4
			c1,1.3,1.4,2.9,0.9,4.5l-4.4,16.1C928.1,894.9,925.1,897,921.8,896.6z"/>
		<path fill="#696969" d="M986.5,875.1l61.8,33.8c5.2,2.8,5.7,10,1,13.6l-59.9,44.8c-3.3,2.5-8.1,1.2-9.7-2.6l-21.7-50.6
			c-1.6-3.7-1.1-8,1.3-11.2l19.6-26.2C980.7,874.3,983.9,873.6,986.5,875.1z"/>
		<path fill="#848484" d="M945.1,978.9l5.7,14c0.8,1.9-0.8,4-2.8,3.8l-32.5-3.5c-1.5-0.2-2.4-1.7-1.8-3.1l3.8-8.7
			c0.6-1.5,2-2.6,3.5-2.9l16.3-3.6C940.6,974.1,943.9,975.9,945.1,978.9z"/>
		<path fill="#959595" d="M1032.4,841.1l14.8-3.3c2-0.5,3.8,1.4,3.3,3.4l-8.8,31.4c-0.4,1.5-2.1,2.1-3.4,1.3l-8-5.2
			c-1.4-0.9-2.2-2.4-2.3-4l-0.9-16.7C1026.9,844.8,1029.2,841.8,1032.4,841.1z"/>
	</g>
	<g>
		<path opacity="0.2" fill="#231F20" d="M121.1,623.2c2.7-1.1-21.1-40.6-0.1-37c37.9,6.5,16.2,50.5,18,54.9
			c1.8,4.2,26.8-15.9,42.5-50.4c8-17.5,10.9,34.3,27.6,34.3c2.6,0-4.8-17-1.3-26.2c3.4-8.9,12.5-14.4,18.4-14.1
			c27.1,1.5,15.8,51.3,16.6,65c7.2,10.9,42.9-45.1,44.1-46.7v-41.6H70.1v41.5C76.7,602.9,106.6,631.1,121.1,623.2z"/>
		<path fill="#559500" d="M117.2,620.6c2.7-1.1-19.9-37.6,3.7-34.4c33.4,4.5,19,45.1,18.7,49.7c-0.3,4.6,16.4-0.4,40.9-45.2
			c9.2-16.9,9.4,31.9,26.1,31.9c2.6,0-4.4-14.6-0.9-23.8c3.4-8.9,9.2-14.2,19.4-14.1c27.1,0.3,16.8,52.5,17.3,62.1
			c0.5,9.4,43.1-42.2,44.4-43.8v-41.6H70.1v41.5C76.7,602.9,102.7,628.5,117.2,620.6z"/>
		<path fill="#66B300" d="M286.8,574.3c0,0-59.1-2.4-80.6-0.3c-23,2.2-63.7,2-80,0.3c-16.8-1.8-56.1,0-56.1,0v-9.2h216.7V574.3z"/>
		<path fill="#6CBD00" d="M286.8,570.6c0,0-31.3,1.4-52.9,0s-91.3,2.6-107.7,0s-56.1,0-56.1,0v-9.2h216.7V570.6z"/>
	</g>
	<g>
		<path opacity="0.2" fill="#231F20" d="M390.3,623.2c2.7-1.1-21.1-40.6-0.1-37c37.9,6.5,16.2,50.5,18,54.9
			c1.8,4.2,26.8-15.9,42.5-50.4c8-17.5,10.9,34.3,27.6,34.3c2.6,0-4.8-17-1.3-26.2c3.4-8.9,12.5-14.4,18.4-14.1
			c27.1,1.5,15.8,51.3,16.6,65c7.2,10.9,42.9-45.1,44.1-46.7v-41.6H339.3v41.5C345.9,602.9,375.7,631.1,390.3,623.2z"/>
		<path fill="#559500" d="M386.4,620.6c2.7-1.1-19.9-37.6,3.7-34.4c33.4,4.5,19,45.1,18.7,49.7c-0.3,4.6,16.4-0.4,40.9-45.2
			c9.2-16.9,9.4,31.9,26.1,31.9c2.6,0-4.4-14.6-0.9-23.8c3.4-8.9,9.2-14.2,19.4-14.1c27.1,0.3,16.8,52.5,17.3,62.1
			c0.5,9.4,43.1-42.2,44.4-43.8v-41.6H339.3v41.5C345.9,602.9,371.9,628.5,386.4,620.6z"/>
		<path fill="#66B300" d="M556,574.3c0,0-59.1-2.4-80.6-0.3c-23,2.2-63.7,2-80,0.3c-16.8-1.8-56.1,0-56.1,0v-9.2H556V574.3z"/>
		<path fill="#6CBD00" d="M556,570.6c0,0-31.3,1.4-52.9,0c-21.6-1.4-91.3,2.6-107.7,0c-16.4-2.6-56.1,0-56.1,0v-9.2H556V570.6z"/>
	</g>
	<g>
		<path opacity="0.2" fill="#231F20" d="M659,623.2c2.7-1.1-21.1-40.6-0.1-37c37.9,6.5,16.2,50.5,18,54.9
			c1.8,4.2,26.8-15.9,42.5-50.4c8-17.5,10.9,34.3,27.6,34.3c2.6,0-4.8-17-1.3-26.2c3.4-8.9,12.5-14.4,18.4-14.1
			c27.1,1.5,15.8,51.3,16.6,65c7.2,10.9,42.9-45.1,44.1-46.7v-41.6H608v41.5C614.6,602.9,644.5,631.1,659,623.2z"/>
		<path fill="#559500" d="M655.1,620.6c2.7-1.1-19.9-37.6,3.7-34.4c33.4,4.5,19,45.1,18.7,49.7c-0.3,4.6,16.4-0.4,40.9-45.2
			c9.2-16.9,9.4,31.9,26.1,31.9c2.6,0-4.4-14.6-0.9-23.8c3.4-8.9,9.2-14.2,19.4-14.1c27.1,0.3,16.8,52.5,17.3,62.1
			c0.5,9.4,43.1-42.2,44.4-43.8v-41.6H608v41.5C614.6,602.9,640.6,628.5,655.1,620.6z"/>
		<path fill="#66B300" d="M824.7,574.3c0,0-59.1-2.4-80.6-0.3c-23,2.2-63.7,2-80,0.3c-16.8-1.8-56.1,0-56.1,0v-9.2h216.7V574.3z"/>
		<path fill="#6CBD00" d="M824.7,570.6c0,0-31.3,1.4-52.9,0s-91.3,2.6-107.7,0c-16.4-2.6-56.1,0-56.1,0v-9.2h216.7V570.6z"/>
	</g>
	<g>
		<path opacity="0.2" fill="#231F20" d="M928.1,623.2c2.7-1.1-21.1-40.6-0.1-37c37.9,6.5,16.2,50.5,18,54.9
			c1.8,4.2,26.8-15.9,42.5-50.4c8-17.5,10.9,34.3,27.6,34.3c2.6,0-4.8-17-1.3-26.2c3.4-8.9,12.5-14.4,18.4-14.1
			c27.1,1.5,15.8,51.3,16.6,65c7.2,10.9,42.9-45.1,44.1-46.7v-41.6H877.1v41.5C883.7,602.9,913.5,631.1,928.1,623.2z"/>
		<path fill="#559500" d="M924.2,620.6c2.7-1.1-19.9-37.6,3.7-34.4c33.4,4.5,19,45.1,18.7,49.7c-0.3,4.6,16.4-0.4,40.9-45.2
			c9.2-16.9,9.4,31.9,26.1,31.9c2.6,0-4.4-14.6-0.9-23.8c3.4-8.9,9.2-14.2,19.4-14.1c27.1,0.3,16.8,52.5,17.3,62.1
			c0.5,9.4,43.1-42.2,44.4-43.8v-41.6H877.1v41.5C883.7,602.9,909.7,628.5,924.2,620.6z"/>
		<path fill="#66B300" d="M1093.8,574.3c0,0-59.1-2.4-80.6-0.3c-23,2.2-63.7,2-80,0.3c-16.8-1.8-56.1,0-56.1,0v-9.2h216.7V574.3z"/>
		<path fill="#6CBD00" d="M1093.8,570.6c0,0-31.3,1.4-52.9,0s-91.3,2.6-107.7,0c-16.4-2.6-56.1,0-56.1,0v-9.2h216.7V570.6z"/>
	</g>
</g>
<g id="Crate">
	<g>
		<path fill="#C49558" d="M1117.5,36.6v216.7h215.9V36.6H1117.5z M1156.9,213.9V76H1294v137.9H1156.9z"/>
	</g>
	<rect x="1142.7" y="61.7" fill="#C49558" width="165.5" height="171.4"/>
	<g id="Highlights_14_">
		<polygon fill="#CCBF89" points="1319.3,50.7 1131.5,50.7 1119.3,38.5 1331.4,38.6 		"/>
		<polygon fill="#CCBF89" points="1297.5,217.4 1154.7,215.9 1142.7,228 1308.2,228 		"/>
	</g>
	<g>
		<g>
			<path fill="#704926" d="M1295,174.1v39.8H1156v-39.8H1295 M1297.1,171.9h-143.3v44.1h143.3V171.9L1297.1,171.9z"/>
		</g>
		<g>
			<path fill="#704926" d="M1295,125v44.8H1156V125H1295 M1297.1,122.8h-143.3v49.2h143.3V122.8L1297.1,122.8z"/>
		</g>
		<g>
			<path fill="#704926" d="M1295,75.8v44.8H1156V75.8H1295 M1297.1,73.6h-143.3v49.2h143.3V73.6L1297.1,73.6z"/>
		</g>
	</g>
	<rect id="Shadow_14_" x="1154.3" y="73.2" opacity="0.5" fill="#666666" width="141.4" height="19.8"/>
	<g id="Outlines_14_">
		<g>
			<path fill="#704926" d="M1329.1,41v208h-207.3V41H1329.1 M1152.5,218.3h4.3H1294h4.3v-4.3V76v-4.3h-4.3h-137.1h-4.3V76v137.9
				V218.3 M1333.4,36.6h-215.9v216.7h215.9V36.6L1333.4,36.6z M1156.9,213.9V76H1294v137.9H1156.9L1156.9,213.9z"/>
		</g>
		<line fill="none" stroke="#704926" stroke-width="4.3337" stroke-miterlimit="10" x1="1119.9" y1="39.1" x2="1154.3" y2="73.2"/>
		<line fill="none" stroke="#704926" stroke-width="4.3337" stroke-miterlimit="10" x1="1331.4" y1="38.6" x2="1295.8" y2="73.2"/>
		
			<line fill="none" stroke="#704926" stroke-width="4.3337" stroke-miterlimit="10" x1="1119.3" y1="251.3" x2="1154.3" y2="216.5"/>
		
			<line fill="none" stroke="#704926" stroke-width="4.3337" stroke-miterlimit="10" x1="1295.7" y1="215.4" x2="1330.9" y2="250.8"/>
	</g>
	<polygon fill="#C49558" points="1294,107.1 1187.2,213.9 1156.9,213.9 1156.9,183 1263.8,76 1294,76 	"/>
	<polygon fill="none" stroke="#704926" stroke-width="4.3337" stroke-miterlimit="10" points="1294,107.1 1187.2,213.9 
		1156.9,213.9 1156.9,183 1263.8,76 1294,76 	"/>
	<circle fill="#704926" cx="1273.8" cy="94.5" r="7.8"/>
	<circle fill="#704926" cx="1175.1" cy="194" r="7.8"/>
</g>
<g id="Water">
	<g id="Water-floor">
		<rect id="Water-Solid" x="1119.9" y="817.1" fill="#00AEEF" width="216.7" height="216.7"/>
		<rect x="1119.9" y="998.5" fill="#FFD699" width="216.7" height="35.3"/>
		<path fill="#FBB040" d="M1119.9,1033.8h216.7c0,0,0-21.5,0-25.9c-12.3,0-17,4.5-34.4,0c-17.5-4.5-41.9-4.5-67.3,0
			c-25.4,4.5-52.1,4-62,0c-9.9-4-36,0-53,0C1119.9,1011.9,1119.9,1033.8,1119.9,1033.8z"/>
		<ellipse fill="#E39F3A" cx="1255.9" cy="1012.5" rx="5.6" ry="3.7"/>
		<ellipse fill="#E39F3A" cx="1287" cy="1021" rx="5.5" ry="4.2"/>
		<ellipse fill="#E39F3A" cx="1163.4" cy="1012.9" rx="4.6" ry="3.3"/>
	</g>
	<rect id="Water-Solid_2_" x="1119.9" y="561.4" fill="#00AEEF" width="216.7" height="216.7"/>
	<g id="Water-Waves">
		<linearGradient id="SVGID_2_" gradientUnits="userSpaceOnUse" x1="1228.2434" y1="307.3794" x2="1228.2434" y2="524.0632">
			<stop  offset="0" style="stop-color:#FFFFFF"/>
			<stop  offset="0.148" style="stop-color:#B7E8FB"/>
			<stop  offset="0.2964" style="stop-color:#77D4F6"/>
			<stop  offset="0.4317" style="stop-color:#44C3F3"/>
			<stop  offset="0.5489" style="stop-color:#1FB8F1"/>
			<stop  offset="0.6435" style="stop-color:#08B1F0"/>
			<stop  offset="0.7035" style="stop-color:#00AEEF"/>
		</linearGradient>
		<path fill="url(#SVGID_2_)" d="M1336.6,524.1h-216.7c0,0,0-195.7,0-216.7c24.4,0,27.6,3.5,55.2,14.3c27.5,10.7,59.8-23.6,91-9.2
			s38.6-5.1,70.5-5.1C1336.6,335.5,1336.6,524.1,1336.6,524.1z"/>
		<path fill="#27AAE1" d="M1122.9,310.4c17,0.2,22.7,2.6,38.2,8.9c3.7,1.5,7.9,3.2,12.9,5.2c4,1.6,8.2,2.3,12.9,2.3
			c10.1,0,20.7-3.8,30.9-7.4c10.4-3.7,21.2-7.5,31.6-7.5c5.6,0,10.6,1.1,15.4,3.3c8.1,3.7,15.4,5.6,22.2,5.6
			c7.7,0,14.1-2.2,20.9-4.6c7.4-2.6,15-5.2,25.6-5.7c0,0,1.5-0.1,3-0.1c0-1.1,0-2.2,0-3c-23.3,0-33.6,10.3-49.6,10.3
			c-5.9,0-12.6-1.4-21-5.3c-5.5-2.6-11.1-3.6-16.7-3.6c-21.4,0-42.9,14.9-62.5,14.9c-4,0-7.9-0.6-11.8-2.1
			c-27.5-10.7-30.8-14.3-55.2-14.3c0,0.8,0,1.6,0,3C1120.9,310.4,1122.9,310.4,1122.9,310.4z"/>
	</g>
</g>
<g id="Clouds">
	<g>
		<path fill="#FFFFFF" d="M1826.8,199.2c9.4-15.3,14.9-33.3,14.9-52.6c0-55.4-44.9-100.4-100.4-100.4c-34.5,0-64.9,17.4-82.9,43.8
			c-16.7-17.7-40.3-28.7-66.5-28.7c-50.5,0-91.5,41-91.5,91.5c0,6.7,0.7,13.1,2.1,19.4c-11.4-6.1-24.4-9.6-38.2-9.6
			c-44.6,0-80.8,36.2-80.8,80.8s36.2,80.8,80.8,80.8c2.9,0,5.7-0.2,8.5-0.4c12.7,20.8,35.6,34.7,61.8,34.7
			c24.5,0,46.1-12.2,59.2-30.8c9.2,7,20.7,11.2,33.1,11.2c14.1,0,27-5.4,36.7-14.1c10.2,9.9,24,15.9,39.3,15.9
			c21.9,0,40.8-12.4,50.2-30.6c12.4,13,29.9,21.1,49.3,21.1c37.7,0,68.3-30.6,68.3-68.3C1870.7,233.9,1852.5,209,1826.8,199.2z"/>
		<g>
			<path fill="#E6E7E8" d="M1831.6,124.2c0,19.3-13.8,49.8-23.2,65.1c6.1,2.3,13.4,6,18.5,9.9c13.2-17.7,14.9-38.5,14.9-52.6
				c0-19.2-5.4-37.1-14.7-52.3C1830,103.7,1831.6,113.8,1831.6,124.2z"/>
			<path fill="#E6E7E8" d="M1858.5,224c1.3,5.3,2.1,10.9,2.1,16.6c0,37.7-30.6,68.3-68.3,68.3c-19.4,0-36.9-8.1-49.3-21.1
				c-9.4,18.2-28.3,30.6-50.2,30.6c-15.3,0-29.1-6.1-39.3-15.9c-9.7,8.8-22.6,14.1-36.7,14.1c-12.5,0-24-4.2-33.1-11.2
				c-13.1,18.6-34.7,30.8-59.2,30.8c-26.2,0-49.1-13.9-61.8-34.7c-2.8,0.3-5.6,0.4-8.5,0.4c-28.3,0-53.2-14.6-67.7-36.6
				c9.5,34,40.8,59,77.8,59c2.9,0,5.7-0.2,8.5-0.4c12.7,20.8,35.6,34.7,61.8,34.7c24.5,0,46.1-12.2,59.2-30.8
				c9.2,7,20.7,11.2,33.1,11.2c14.1,0,27-5.4,36.7-14.1c10.2,9.9,24,15.9,39.3,15.9c21.9,0,40.8-12.4,50.2-30.6
				c12.4,13,29.9,21.1,49.3,21.1c37.7,0,68.3-30.6,68.3-68.3C1870.7,248.5,1866.2,235,1858.5,224z"/>
		</g>
	</g>
	<g>
		<path fill="#FFFFFF" d="M1854.6,524.1c0-45.2-36.6-81.8-81.8-81.8c-17.6,0-33.8,5.6-47.2,15c-21.6-28.4-55.7-46.8-94.1-46.8
			c-46.9,0-87.4,27.4-106.5,67c-11.1-5.4-23.6-8.4-36.7-8.4c-46.5,0-84.3,37.7-84.3,84.3s37.7,84.3,84.3,84.3c6.1,0,12-0.7,17.8-1.9
			c8.1,19.5,27.3,33.2,49.7,33.2c19.5,0,36.6-10.4,46-25.9c9.5,2.5,19.5,3.8,29.7,3.8c30.1,0,57.5-11.3,78.4-29.8
			c8.7,18.3,27.4,30.9,49,30.9c29.3,0,53.2-23.3,54.2-52.4C1837.8,581.2,1854.6,554.6,1854.6,524.1z"/>
		<path fill="#E6E7E8" d="M1840.3,477.8c1.7,6.5,2.6,13.3,2.6,20.4c0,30.6-16.8,57.2-41.6,71.2c-1,29.1-24.9,52.4-54.2,52.4
			c-21.6,0-40.2-12.6-49-30.9c-20.9,18.5-48.3,29.8-78.4,29.8c-10.3,0-20.2-1.3-29.7-3.8c-9.4,15.5-26.5,25.9-46,25.9
			c-22.4,0-41.6-13.7-49.7-33.2c-5.7,1.2-11.7,1.9-17.8,1.9c-29,0-54.6-14.7-69.7-37c9.5,36.2,42.4,62.9,81.5,62.9
			c6.1,0,12-0.7,17.8-1.9c8.1,19.5,27.3,33.2,49.7,33.2c19.5,0,36.6-10.4,46-25.9c9.5,2.5,19.5,3.8,29.7,3.8
			c30.1,0,57.5-11.3,78.4-29.8c8.7,18.3,27.4,30.9,49,30.9c29.3,0,53.2-23.3,54.2-52.4c24.8-14.1,41.6-40.7,41.6-71.2
			C1854.6,506.9,1849.3,491,1840.3,477.8z"/>
	</g>
	<g>
		<path fill="#FFFFFF" d="M1833.4,841.1c1.1-5.9,1.6-12.1,1.6-18.3c0-57.2-46.4-103.6-103.6-103.6c-28.6,0-54.4,11.6-73.2,30.2
			c-13.9-11.1-31.6-17.8-50.8-17.8c-45,0-81.4,36.4-81.4,81.4c0,13.5,3.3,26.2,9.1,37.5c-4.6-0.9-9.4-1.4-14.3-1.4
			c-39.1,0-70.8,31.7-70.8,70.8s31.7,70.8,70.8,70.8c21.9,0,41.5-10,54.5-25.6c11,10.8,26,17.5,42.6,17.5c14.7,0,28.2-5.2,38.7-13.9
			c9.7,8.9,22.7,14.3,36.9,14.3c14,0,26.8-5.3,36.5-14c14.9,14.7,35.4,23.7,57.9,23.7c45.6,0,82.6-37,82.6-82.6
			C1870.7,881.2,1855.8,855.8,1833.4,841.1z"/>
		<g>
			<path fill="#E6E7E8" d="M1824.9,800.4c0,6.3-2.1,25.4-3.1,31.4c4.2,2.7,8.1,5.8,11.6,9.3c1.6-7.6,1.6-16.5,1.6-18.3
				c0-19.7-5.5-38.1-15-53.7C1823.2,778.9,1824.9,789.5,1824.9,800.4z"/>
			<path fill="#E6E7E8" d="M1857.3,865.2c2,7.2,3.2,14.8,3.2,22.6c0,45.6-37,82.6-82.6,82.6c-22.6,0-43-9.1-57.9-23.7
				c-9.7,8.7-22.4,14-36.5,14c-14.2,0-27.2-5.4-36.9-14.3c-10.5,8.7-24,13.9-38.7,13.9c-16.6,0-31.6-6.7-42.6-17.5
				c-13,15.6-32.6,25.6-54.5,25.6c-24.3,0-45.7-12.2-58.5-30.9c7.8,30.6,35.6,53.2,68.6,53.2c21.9,0,41.5-10,54.5-25.6
				c11,10.8,26,17.5,42.6,17.5c14.7,0,28.2-5.2,38.7-13.9c9.7,8.9,22.7,14.3,36.9,14.3c14,0,26.8-5.3,36.5-14
				c14.9,14.7,35.4,23.7,57.9,23.7c45.6,0,82.6-37,82.6-82.6C1870.7,893.5,1865.8,878.1,1857.3,865.2z"/>
		</g>
	</g>
</g>
</svg>
